# xmcd CD database file
#
# Track frame offsets:
#	150
#	34070
#	56114
#	74978
#	98590
#	122734
#	127242
#	162562
#
# Disc length: 2721 seconds
#
# Revision: 6
# Processed by: cddbd v1.5.2PL0 Copyright (c) Steve Scherf et al.
# Submitted via: CDex 1.70beta2
#
DISCID=7c0a9f08
DTITLE=中島みゆき - 生きていてもいいですか
DYEAR=1980
DGENRE=J-POP(J)
TTITLE0=うらみ・ます
TTITLE1=泣きたい夜に
TTITLE2=キツネ狩りの歌
TTITLE3=蕎麦屋
TTITLE4=舟を出すのなら九月
TTITLE5=_
TTITLE6=エレーン
TTITLE7=異国
EXTD=YEAR: 1980
EXTT0=
EXTT1=
EXTT2=
EXTT3=
EXTT4=
EXTT5=
EXTT6=
EXTT7=
PLAYORDER=
